<svg width="73" height="112" viewBox="0 0 73 112" fill="none" xmlns="http://www.w3.org/2000/svg">
<path id="XMLID_364_" d="M14.09 59.5751C11.4061 56.9652 7.96793 61.0665 5.12616 61.0132C4.67007 63.1083 3.9333 64.5997 3.17901 65.1501C2.05633 65.9668 -0.0136131 69.0384 1.58269 69.358C3.17899 69.6775 5.7401 72.2697 6.0734 70.3345C6.38915 68.3992 7.51186 65.807 10.2308 69.0384C10.8799 69.8196 11.7043 70.5475 12.599 71.2222C13.0375 69.7486 16.388 69.5 18.1246 67.7245C20.2296 65.5762 17.0546 62.4691 14.09 59.5751ZM71.9953 86.1539C72.2058 82.9403 65.2242 80.6855 64.4699 82.4077C63.7332 84.1299 62.1369 83.9168 60.9791 81.9815C59.8214 80.0463 62.0492 78.2175 60.8739 78.0222C59.6986 77.8092 58.2251 75.1282 58.5409 74.063C58.8566 72.9977 56.734 66.1266 53.1379 65.2744C49.5419 64.4222 49.0157 59.2733 48.3666 56.4858C47.7351 53.6983 45.402 55.1897 43.5952 52.8461C41.7884 50.4847 38.7187 51.6743 37.1399 51.7808C35.5436 51.8873 37.1399 48.7802 39.6834 47.058C42.227 45.3358 45.1915 36.2277 45.1915 34.4167C45.1915 32.5879 34.0701 32.6945 31.9475 33.7775C29.825 34.8428 27.72 32.1796 29.5092 31.4161C31.316 30.6704 35.1226 26.9242 34.9121 25.415C34.7015 23.9236 37.5609 22.521 35.9821 21.1184C34.3858 19.7335 34.1753 22.9471 32.807 24.0124C31.4388 25.0777 28.3514 24.7581 25.0711 24.1189C21.7908 23.4798 20.5278 28.1848 20.6331 30.2265C20.7383 32.2683 16.8265 33.4402 17.458 35.1624C18.0895 36.8846 16.7213 38.1629 15.6688 37.1864C14.6163 36.2276 13.4409 33.8663 11.3359 35.5885C9.21337 37.3107 13.7743 39.5478 16.5283 39.8851C19.2824 40.2047 14.4233 42.2465 13.8795 45.2293C13.3532 48.2298 17.4756 46.9515 17.6861 49.082C17.8966 51.2304 11.7569 51.55 11.7569 53.574C11.7569 55.6158 15.2477 52.6152 16.844 51.763C18.4403 50.9108 16.002 56.7876 19.8086 56.1484C23.6151 55.5093 22.5626 50.2539 23.9309 50.4669C25.2991 50.68 23.2994 53.2544 24.4571 55.5093C25.6149 57.7641 21.7031 61.1908 21.9136 62.8064C22.1241 64.4044 29.7548 64.4044 32.1755 61.8477C34.6138 59.2733 35.7716 62.0607 34.0876 63.996C32.4036 65.9313 33.1403 67.7423 35.2629 68.5057C37.3679 69.2514 38.1222 69.4645 37.1749 71.1867C36.2277 72.9089 37.0697 76.1225 36.5435 77.7204C36.0172 79.3183 29.4566 79.123 29.2461 78.04C29.0356 76.9747 26.2815 77.7204 27.0183 79.2118C27.755 80.721 24.6852 82.3189 24.8957 83.7215C25.1062 85.1241 29.018 84.7868 29.1233 86.509C29.2285 88.2134 26.264 90.2552 22.2469 91.4448C18.2123 92.6166 23.0889 95.8302 25.001 94.4453C26.913 93.0605 26.492 95.4041 29.2461 95.4041C32.0002 95.4041 33.7017 97.659 36.7539 96.4694C39.8237 95.2976 39.7185 96.4694 37.3855 98.2981C35.0524 100.127 31.5616 98.1916 29.4391 99.3634C27.3165 100.535 18.7034 108.72 20.3348 110.726C21.2821 111.898 22.5451 109.004 25.6325 107.726C28.7023 106.448 29.2286 108.578 30.9301 108.791C32.6141 109.004 32.7193 105.258 34.1051 105.578C35.4734 105.897 36.7539 104.406 39.2975 104.832C41.8411 105.258 43.6479 104.299 44.9109 103.216C46.1739 102.151 49.5594 105.347 50.6295 104.601C51.682 103.855 56.3481 102.985 58.6812 103.092C61.0142 103.198 67.0486 100.411 68.6274 98.9196C70.2237 97.4282 67.6801 97.1086 65.5576 97.4281C63.435 97.7477 63.856 95.2798 66.0838 93.1315C68.2941 90.9832 71.7848 89.3675 71.9953 86.1539ZM8.37139 32.3571C11.2307 32.2506 14.511 27.3148 13.1427 25.9299C11.7569 24.5273 6.23129 32.4281 8.37139 32.3571ZM49.349 9.09844C51.1558 7.28746 53.2607 0.309846 50.5242 1.05554C47.7526 1.819 48.5596 9.8974 49.349 9.09844Z" fill="#3177FF" stroke="#1763FB" stroke-miterlimit="10"/>
</svg>
