<svg width="94" height="57" viewBox="0 0 94 57" fill="none" xmlns="http://www.w3.org/2000/svg">
<path id="XMLID_259_" d="M12.928 27.9155C14.6978 30.328 20.4003 32.434 22.5634 31.4001C24.6871 30.3662 31.4516 33.8126 31.4516 36.608C31.4516 39.365 29.6818 47.7129 31.4516 47.7129C33.064 47.7129 43.3286 50.8146 44.0365 54.9885C48.6379 55.1033 53.8685 55.3331 55.7956 55.7927C59.6104 56.7117 61.9701 54.414 63.8579 52.0782C65.7456 49.7806 72.3921 48.8616 74.3192 48.8616C76.2069 48.8616 76.2069 43.7687 76.6788 41.4711C77.1508 39.1736 81.9095 34.9996 84.7411 34.0806C87.6121 33.1616 87.1007 29.9067 89.9717 29.9067C92.8426 29.9067 92.3313 26.1924 91.8593 23.8948C91.584 22.478 91.8988 20.7164 93 18.955C89.9324 17.2318 87.1794 15.7385 84.859 13.8621C80.4936 10.3392 73.2571 5.3611 69.639 6.08866C66.0208 6.81622 66.0208 0.421354 60.2002 2.56575C54.3797 4.71014 44.2331 2.56575 39.8677 2.56575C35.5416 2.56575 21.7375 -0.957185 16.6642 2.56575C13.7539 4.59526 8.68045 5.43767 3.96108 5.7823C7.18598 12.2538 6.00614 18.7636 2.38795 22.746C-0.207701 25.5797 1.2868 25.9626 3.21388 27.0731C7.10736 26.6902 11.5122 25.9626 12.928 27.9155Z" fill="#3177FF" stroke="#1763FB" stroke-miterlimit="10"/>
</svg>
