<svg width="99" height="54" viewBox="0 0 99 54" fill="none" xmlns="http://www.w3.org/2000/svg">
<path id="XMLID_272_" d="M92.7619 24.1465C90.1429 22.5904 82.9021 23.6408 82.3629 21.5401C81.8622 19.4394 81.3231 15.7826 78.2033 15.7826C75.0836 15.7826 70.9239 13.6819 69.3833 17.3387C67.8041 20.9954 61.6034 16.2883 61.0642 13.6819C60.5635 11.0366 57.9443 8.97482 50.7035 6.32951C47.8149 5.27916 44.5412 3.17849 41.6141 1C41.383 1.62243 41.0749 2.24487 40.8052 2.67279C39.4187 4.81238 34.5272 0.922178 32.4474 3.02287C30.3676 5.12356 23.3964 5.47363 19.5449 9.01368C15.6934 12.5537 7.68225 14.3043 3.13749 15.3547C-1.40728 16.405 2.44429 20.6453 4.17747 23.7963C5.91064 26.9473 5.91068 34.7277 9.41554 37.1785C12.9204 39.6293 24.3979 47.0206 25.823 49.5103C26.0541 49.9383 25.9 50.3273 25.6304 50.7163C30.4833 52.039 37.9937 52.0778 39.3032 49.8604C40.8438 47.254 41.9221 42.508 41.9221 42.508C41.9221 42.508 52.2828 42.508 56.4424 47.254C60.602 51.9611 68.4204 48.8101 68.4204 48.8101C68.4204 48.8101 68.8442 50.1327 69.5375 52C70.6544 49.3936 72.1179 47.1373 73.8896 46.865C78.2803 46.2426 84.5197 45.6201 88.8719 39.2792C91.1443 36.0114 94.8803 33.4439 98 31.6934C95.8817 29.1259 94.7647 25.3913 92.7619 24.1465Z" fill="#3177FF" stroke="#1763FB" stroke-miterlimit="10"/>
</svg>
