<svg width="90" height="82" viewBox="0 0 90 82" fill="none" xmlns="http://www.w3.org/2000/svg">
<path id="XMLID_269_" d="M29.7485 63.5363C33.601 59.4596 40.317 61.4979 44.1696 65.5746C48.0221 69.6513 53.8009 70.643 59.5276 76.758C60.9853 78.3557 62.5992 79.7329 64.161 81C64.6816 76.7029 64.7856 68.164 66.6077 63.7567C68.4819 59.1291 64.7337 53.1242 67.8574 53.1242C70.9811 53.1242 79.7794 53.1242 79.7794 47.1744C79.7794 41.1695 82.2783 43.1527 84.2046 39.8473C86.0788 36.5418 78.5297 29.8759 77.2803 27.8926C76.0308 25.9094 82.9549 25.2482 87.9528 17.2601C89.775 14.3403 88.9942 8.44561 87.3282 2C86.4952 4.3689 84.8291 6.07677 81.9658 4.25877C77.2282 1.28387 70.0438 2.93657 60.6207 4.91983C51.1976 6.9031 48.3864 16.5439 51.8224 20.5655C55.3105 24.5872 42.7118 26.5704 41.7747 21.2266C40.8376 15.8828 31.4144 19.5739 32.0392 26.5154C32.6639 33.5119 21.6791 36.1562 22.3039 44.8054C22.9286 53.4547 12.256 61.4428 5.33186 65.7399C4.23858 66.401 3.14535 67.1171 2 67.7782C5.4881 69.486 8.24734 70.5879 9.54887 70.5879C15.3797 70.6981 25.896 67.613 29.7485 63.5363Z" fill="#3177FF" stroke="#1763FB" stroke-miterlimit="10"/>
</svg>
