<svg width="88" height="73" viewBox="0 0 88 73" fill="none" xmlns="http://www.w3.org/2000/svg">
<path id="XMLID_278_" d="M1.99393 15.1981C2.59218 16.8139 3.21261 22.5144 1.79453 24.7586C0.398612 27.0028 0.996798 27.6088 2.39272 28.4167C3.78864 29.2247 4.40907 31.2669 4.40907 32.8828C4.40907 34.4986 5.40614 34.2966 5.60555 37.7528C5.80497 41.2089 6.60264 43.6327 7.8213 45.069C8.75191 46.1912 8.59685 47.8968 8.08723 49.176C9.7712 50.4328 11.6546 51.6447 13.3164 52.2506C17.5042 53.7767 18.9887 54.9661 19.2768 56.4922C19.587 57.9959 23.1543 60.7339 24.0628 58.6019C24.9491 56.4923 27.3421 57.7042 29.1368 57.7042C30.9316 57.7042 31.2417 59.8138 31.5298 61.0257C31.84 62.2375 36.0056 61.6316 37.5123 62.5293C38.9969 63.427 39.5951 66.7709 41.7001 67.9828C43.805 69.1947 45.5777 66.4791 47.0844 67.3768C48.5689 68.2745 52.4687 69.1947 54.8617 68.2745C57.2325 67.3768 58.7392 69.1723 61.7305 68.8805C64.7218 68.5663 68.5993 69.7782 69.4856 70.6983C69.9509 71.1696 72.4768 71.6409 74.7812 72C75.3795 70.7657 74.2272 66.928 74.4045 65.9854C74.6039 64.9755 81.6278 58.6692 82.8243 57.2553C84.0209 55.8414 85.8378 55.8414 86.8349 54.0011C87.832 52.1609 84.0209 46.2809 83.2232 45.069C82.4256 43.8571 82.0267 38.9871 82.6249 36.9449C83.2232 34.925 79.6115 33.6907 79.6115 32.2768C79.6115 30.863 83.0238 28.4167 84.8185 27.6088C86.6133 26.8009 86.0151 21.1005 84.4197 19.6866C82.8022 18.2727 82.0045 15.6245 83.0237 12.7743C84.0208 9.92415 77.0191 7.70232 75.9999 7.70232C75.8226 7.70232 75.734 7.52281 75.6675 7.27594C69.397 8.44295 53.3549 6.75976 52.1584 6.26603C51.3608 5.95183 49.3222 5.21123 47.594 4.58284C46.7963 5.92939 45.1345 7.16373 42.6529 7.16373C38.7753 7.16373 38.5094 3.23628 38.3764 1.48577C38.2435 -0.264742 22.7333 2.96698 18.5677 7.16373C14.4242 11.3605 4.80793 9.7446 4.54204 12.0337C4.34262 13.7169 2.90234 14.5697 1.94957 14.0984C1.90525 14.4799 1.88314 14.8839 1.99393 15.1981Z" fill="#3177FF" stroke="#1763FB" stroke-miterlimit="10"/>
</svg>
