<svg width="24" height="24" viewBox="0 0 24 24" fill="none" xmlns="http://www.w3.org/2000/svg">
<g id="Twitter">
<g id="Twitter_2">
<path id="Twitter_1_" fill-rule="evenodd" clip-rule="evenodd" d="M23.9027 4.21815C23.0245 4.60603 22.0788 4.86823 21.0869 4.98539C22.0998 4.38275 22.8771 3.42701 23.2433 2.28873C22.2949 2.84682 21.2469 3.25281 20.1273 3.47047C19.235 2.52323 17.9596 1.93164 16.5483 1.93164C13.8419 1.93164 11.6462 4.11494 11.6462 6.80761C11.6462 7.18987 11.6882 7.56091 11.7725 7.91818C7.69711 7.71428 4.0845 5.77509 1.6642 2.82165C1.24199 3.54435 1.00054 4.38275 1.00054 5.27567C1.00054 6.9666 1.86625 8.45925 3.18218 9.33405C2.37978 9.31033 1.622 9.08851 0.959828 8.7258L0.959828 8.78574C0.959828 11.149 2.65036 13.1203 4.89512 13.5668C4.48411 13.6813 4.05051 13.7385 3.6029 13.7385C3.28732 13.7385 2.97864 13.7092 2.67968 13.6519C3.30394 15.5884 5.11379 16.9989 7.26033 17.0365C5.58231 18.3452 3.46677 19.1249 1.17009 19.1249C0.774398 19.1249 0.382997 19.1027 -1.40775e-08 19.0579C2.17044 20.439 4.74909 21.2468 7.5171 21.2468C16.5382 21.2468 21.4695 13.8178 21.4695 7.37385C21.4695 7.16181 21.4652 6.94976 21.4568 6.74188C22.4155 6.05413 23.2474 5.19617 23.9027 4.21815Z" fill="white" fill-opacity="0.3"/>
</g>
</g>
</svg>
