<svg width="20" height="19" viewBox="0 0 20 19" fill="none" xmlns="http://www.w3.org/2000/svg">
<g id="Twitter">
<g id="Twitter_2">
<path id="Twitter_1_" fill-rule="evenodd" clip-rule="evenodd" d="M19.2649 3.70761C18.557 4.02022 17.7949 4.23155 16.9954 4.32598C17.8117 3.84027 18.4383 3.06997 18.7334 2.15255C17.969 2.60236 17.1244 2.92957 16.222 3.10499C15.5029 2.34155 14.4749 1.86475 13.3374 1.86475C11.1561 1.86475 9.38651 3.62442 9.38651 5.79463C9.38651 6.10272 9.42037 6.40177 9.48825 6.68972C6.20364 6.52538 3.29198 4.96245 1.3413 2.58207C1.001 3.16454 0.806402 3.84027 0.806402 4.55993C0.806402 5.92277 1.50414 7.12581 2.56475 7.83087C1.91803 7.81175 1.30728 7.63297 0.773592 7.34064L0.773592 7.38895C0.773592 9.29369 2.13611 10.8825 3.94532 11.2424C3.61406 11.3346 3.26459 11.3807 2.90383 11.3807C2.64948 11.3807 2.4007 11.3571 2.15974 11.311C2.66287 12.8717 4.12156 14.0085 5.85161 14.0388C4.49918 15.0936 2.79411 15.722 0.94306 15.722C0.624142 15.722 0.308684 15.7041 -1.96573e-08 15.668C1.74931 16.7812 3.82763 17.4322 6.05855 17.4322C13.3293 17.4322 17.3038 11.4446 17.3038 6.25101C17.3038 6.0801 17.3003 5.9092 17.2936 5.74165C18.0662 5.18735 18.7367 4.49586 19.2649 3.70761Z" fill="#A9AABC"/>
</g>
</g>
</svg>
