<svg width="18" height="19" viewBox="0 0 18 19" fill="none" xmlns="http://www.w3.org/2000/svg">
<g id="In">
<path id="Vector" d="M9.12396 0.891907C4.28806 0.891907 0.367432 4.81257 0.367432 9.64851C0.367432 14.4846 4.28791 18.4054 9.12396 18.4054C13.9602 18.4054 17.8809 14.4846 17.8809 9.64851C17.8808 4.81257 13.9602 0.891907 9.12396 0.891907ZM5.49041 4.84134C6.08606 4.84134 6.56921 5.28194 6.56921 5.82551C6.56921 6.36908 6.08606 6.80969 5.49041 6.80969C4.89446 6.80969 4.41161 6.36908 4.41161 5.82551C4.41161 5.28194 4.89446 4.84134 5.49041 4.84134ZM6.57739 13.2591L4.44583 13.2591L4.44583 7.69696L6.57739 7.69696L6.57739 13.2591ZM13.8206 13.2591L11.6787 13.2591L11.6787 10.2006C11.6787 9.8514 11.6139 9.6043 11.4848 9.45925C11.3555 9.3145 11.1739 9.24182 10.9403 9.24182C10.6818 9.24182 10.4721 9.33963 10.3116 9.53526C10.151 9.73088 10.0709 10.0817 10.0709 10.588L10.0709 13.2591L7.93917 13.2591L7.93917 7.69696L9.92401 7.69696L9.92401 8.60286C10.2206 8.23296 10.521 7.96845 10.8248 7.80946C11.1285 7.65063 11.4984 7.57129 11.9349 7.57129C12.5251 7.57129 12.9867 7.74663 13.3203 8.0976C13.6536 8.44842 13.8204 8.99048 13.8204 9.72376L13.8204 13.2591L13.8206 13.2591Z" fill="#A9AABC"/>
</g>
</svg>
