<svg width="21" height="16" viewBox="0 0 21 16" fill="none" xmlns="http://www.w3.org/2000/svg">
<g id="YouTube">
<path id="Subtract" fill-rule="evenodd" clip-rule="evenodd" d="M4.30141 0.970185C2.32662 1.18747 0.790096 2.83335 0.662394 4.87075C0.600075 5.87424 0.567383 6.89976 0.567383 7.94103C0.567383 8.98231 0.600075 10.0078 0.662394 11.0113C0.790096 13.0487 2.32662 14.6946 4.30141 14.9108C6.34976 15.1239 8.52684 15.2383 10.7836 15.2383C13.0404 15.2383 15.2174 15.1239 17.2658 14.9119C19.2406 14.6946 20.7771 13.0487 20.9048 11.0113C20.9671 10.0078 20.9998 8.98231 20.9998 7.94103C20.9998 6.89976 20.9671 5.87424 20.9048 4.87075C20.7771 2.83335 19.2406 1.18747 17.2658 0.971235C15.2174 0.758152 13.0404 0.643738 10.7836 0.643738C8.52684 0.643738 6.34976 0.758152 4.30141 0.970185ZM8.88957 11.0848L13.9047 7.94101L8.88957 4.79726L8.88957 11.0848Z" fill="#A9AABC"/>
</g>
</svg>
