<svg width="173" height="48" viewBox="0 0 173 48" fill="none" xmlns="http://www.w3.org/2000/svg">
<path d="M72.7581 7.86839C72.6985 7.1763 73.2275 6.58232 73.9249 6.52398C73.9881 6.51338 74.0526 6.51338 74.1158 6.52398H81.1825C81.3575 6.521 81.5314 6.5527 81.6941 6.61725C81.8568 6.68179 82.0051 6.77791 82.1304 6.90006C82.2558 7.02221 82.3557 7.16797 82.4244 7.32893C82.4932 7.4899 82.5294 7.66288 82.5309 7.83789C82.5295 8.01302 82.4935 8.18615 82.4248 8.34726C82.3562 8.50838 82.2563 8.6543 82.1309 8.77658C82.0055 8.89887 81.8572 8.99511 81.6944 9.05974C81.5316 9.12437 81.3576 9.15611 81.1825 9.15313H76.0515C75.9919 9.14385 75.9322 9.1929 75.9229 9.25124V12.241C75.9123 12.2994 75.9627 12.3577 76.0224 12.3683H80.1444C80.4944 12.3403 80.8414 12.4511 81.1104 12.6769C81.3793 12.9027 81.5486 13.2252 81.5816 13.5748C81.6426 14.2961 81.0831 14.9205 80.3446 14.9789H76.0621C76.0025 14.9683 75.9428 15.0173 75.9322 15.0757V19.1182C75.9322 19.9667 75.2335 20.6482 74.3651 20.6482C74.1616 20.651 73.9596 20.6136 73.7706 20.5382C73.5816 20.4627 73.4094 20.3507 73.2638 20.2086C73.1182 20.0664 73.0021 19.8969 72.9222 19.7098C72.8422 19.5227 72.8 19.3216 72.7979 19.1182L72.7581 7.86706V7.86839ZM88.1101 8.00362C88.1101 7.15641 88.8088 6.47493 89.6772 6.47493C90.5456 6.47493 91.2444 7.15641 91.2444 8.00362V19.1182C91.2444 19.9667 90.5456 20.6482 89.6772 20.6482C89.4737 20.651 89.2717 20.6136 89.0828 20.5382C88.8938 20.4627 88.7216 20.3507 88.576 20.2086C88.4304 20.0664 88.3143 19.8969 88.2343 19.7098C88.1544 19.5227 88.1121 19.3216 88.1101 19.1182V8.00362ZM97.5023 8.21841C97.4029 7.31286 98.0724 6.5041 99.0005 6.40598C99.0801 6.3967 99.1702 6.3967 99.2498 6.3967C100.138 6.3967 100.737 6.91378 101.317 7.88695L105.748 15.5927H105.827V7.86706C105.827 7.10735 106.457 6.48421 107.246 6.48421C107.43 6.48087 107.613 6.51411 107.784 6.58199C107.956 6.64988 108.112 6.75106 108.243 6.87968C108.375 7.00831 108.48 7.16181 108.552 7.33129C108.624 7.50078 108.662 7.68289 108.663 7.86706V18.8941C108.763 19.7996 108.093 20.6084 107.165 20.7158C107.086 20.7251 106.997 20.7251 106.916 20.7251C106.018 20.7251 105.419 20.2093 104.85 19.2256L100.448 11.5794H100.369V19.264C100.369 20.033 99.7297 20.6561 98.9409 20.6561C98.152 20.6561 97.5129 20.033 97.5129 19.264V8.21841H97.5037H97.5023ZM117.947 19.1182V9.38648C117.956 9.32814 117.907 9.2698 117.846 9.26052H115.342C114.976 9.32483 114.6 9.24359 114.294 9.03419C113.988 8.82479 113.776 8.50388 113.704 8.14019C113.674 7.95987 113.681 7.77545 113.722 7.5975C113.764 7.41955 113.84 7.25156 113.947 7.10316C114.053 6.95475 114.188 6.82885 114.344 6.73265C114.499 6.63645 114.672 6.57185 114.852 6.54255C115.014 6.51338 115.18 6.51338 115.342 6.54255H123.636C124.001 6.47823 124.377 6.55948 124.683 6.76888C124.989 6.97828 125.201 7.29918 125.273 7.66288C125.303 7.8432 125.297 8.02762 125.255 8.20557C125.214 8.38352 125.137 8.5515 125.031 8.69991C124.924 8.84832 124.789 8.97422 124.634 9.07042C124.478 9.16662 124.306 9.23122 124.125 9.26052C123.966 9.28969 123.795 9.28969 123.635 9.26052H121.21C121.15 9.25124 121.09 9.3003 121.081 9.35731V19.1195C121.081 19.9654 120.382 20.6482 119.514 20.6482C118.655 20.6482 117.947 19.9654 117.947 19.1182ZM130.343 7.86839C130.284 7.1763 130.813 6.58232 131.512 6.52398C131.574 6.51338 131.638 6.51338 131.701 6.52398H138.768C138.943 6.521 139.117 6.5527 139.279 6.61725C139.442 6.68179 139.59 6.77791 139.716 6.90006C139.841 7.02221 139.941 7.16797 140.01 7.32893C140.079 7.4899 140.115 7.66288 140.116 7.83789C140.115 8.01302 140.079 8.18615 140.01 8.34726C139.941 8.50838 139.842 8.6543 139.716 8.77658C139.591 8.89887 139.442 8.99511 139.28 9.05974C139.117 9.12437 138.943 9.15611 138.768 9.15313H133.637C133.579 9.14385 133.518 9.1929 133.508 9.25124V12.0753C133.498 12.1336 133.548 12.192 133.608 12.2026H137.751C138.101 12.1745 138.448 12.2854 138.717 12.5112C138.986 12.7369 139.155 13.0595 139.188 13.4091C139.248 14.1303 138.688 14.7548 137.95 14.8132H133.647C133.588 14.8025 133.528 14.8529 133.518 14.9099V17.8613C133.508 17.9196 133.557 17.9793 133.618 17.9885H138.778C138.953 17.9857 139.127 18.0176 139.29 18.0823C139.453 18.147 139.601 18.2433 139.726 18.3656C139.851 18.4878 139.951 18.6337 140.02 18.7947C140.088 18.9558 140.124 19.1288 140.126 19.3038C140.124 19.4788 140.088 19.6518 140.02 19.8128C139.951 19.9739 139.851 20.1197 139.726 20.242C139.601 20.3643 139.453 20.4605 139.29 20.5252C139.127 20.5899 138.953 20.6218 138.778 20.619H131.712C131.002 20.6667 130.394 20.151 130.343 19.4695C130.334 19.39 130.343 19.3237 130.343 19.2441V7.86839ZM145.486 13.5655C145.397 12.2795 145.536 10.9934 145.896 9.75771C146.654 7.4587 148.541 6.3092 151.076 6.3092C151.956 6.2531 152.835 6.43084 153.623 6.82438C154.412 7.21792 155.083 7.81324 155.568 8.54987C155.737 8.82167 155.838 9.13324 155.847 9.45542C155.847 10.2151 155.219 10.8383 154.43 10.8383C154.145 10.8428 153.864 10.7723 153.616 10.6338C153.367 10.4953 153.159 10.2938 153.013 10.0494C152.808 9.71882 152.518 9.44886 152.174 9.26731C151.83 9.08577 151.444 8.99922 151.056 9.01657C150.048 8.95823 149.129 9.61054 148.881 10.5652C148.71 11.0822 148.651 11.5887 148.651 13.5947C148.651 15.602 148.71 16.1085 148.88 16.6243C149.129 17.5895 150.038 18.2418 151.056 18.1834C151.445 18.199 151.832 18.1107 152.175 17.9275C152.519 17.7444 152.808 17.473 153.013 17.1413C153.159 16.8968 153.367 16.6951 153.616 16.5566C153.865 16.4181 154.146 16.3477 154.431 16.3525C155.208 16.3525 155.847 16.965 155.847 17.7353C155.841 18.0572 155.744 18.3708 155.569 18.6409C154.601 20.1218 152.883 20.9783 151.076 20.8815C148.541 20.8815 146.665 19.7121 145.896 17.4343C145.526 16.1801 145.387 14.8693 145.486 13.5655ZM161.607 8.00362C161.547 7.15641 162.206 6.43515 163.065 6.37682C163.474 6.34708 163.879 6.47973 164.191 6.74602C164.503 7.0123 164.697 7.39078 164.732 7.79944V12.0077C164.721 12.066 164.772 12.1243 164.831 12.1336H169.592C169.652 12.1442 169.712 12.0952 169.722 12.0368V8.00362C169.722 7.15641 170.421 6.47493 171.289 6.47493C172.158 6.47493 172.857 7.15641 172.857 8.00362V19.1182C172.857 19.9667 172.158 20.6482 171.289 20.6482C171.086 20.651 170.884 20.6136 170.695 20.5382C170.506 20.4627 170.334 20.3507 170.188 20.2086C170.043 20.0664 169.926 19.8969 169.847 19.7098C169.767 19.5227 169.724 19.3216 169.722 19.1182V14.9789C169.733 14.9205 169.683 14.8609 169.623 14.8516H164.862C164.801 14.8423 164.742 14.8914 164.732 14.9497V19.1182C164.801 19.9468 164.162 20.6667 163.313 20.7357C163.264 20.7357 163.204 20.745 163.154 20.7357C162.316 20.7542 161.616 20.1125 161.598 19.2932C161.598 19.2348 161.598 19.1765 161.607 19.1182V8.00362ZM72.7581 28.7332C72.7581 27.8846 73.4568 27.2031 74.3253 27.2031C75.1937 27.2031 75.8924 27.8846 75.8924 28.7332V38.4927C75.8818 38.551 75.9322 38.6094 75.9919 38.62H81.1733C81.5383 38.5553 81.9142 38.6365 82.2201 38.846C82.5261 39.0554 82.7376 39.3766 82.8093 39.7403C82.8391 39.9205 82.833 40.1047 82.7914 40.2825C82.7499 40.4603 82.6736 40.6281 82.5671 40.7764C82.4606 40.9247 82.3258 41.0505 82.1706 41.1466C82.0154 41.2428 81.8427 41.3073 81.6625 41.3366C81.5004 41.3671 81.334 41.3671 81.1719 41.3366H74.3346C74.1427 41.3528 73.9496 41.3307 73.7663 41.2718C73.5829 41.2129 73.4131 41.1183 73.2666 40.9935C73.12 40.8686 72.9996 40.716 72.9124 40.5443C72.8251 40.3727 72.7727 40.1855 72.7581 39.9935V28.7332ZM87.3915 39.4473L91.3438 28.8976C91.7442 27.7786 92.3925 27.1156 93.4612 27.1156C94.5285 27.1156 95.2272 27.8077 95.6263 28.8976L99.4792 39.4473C99.5494 39.6329 99.5892 39.8278 99.5892 40.0227C99.5892 40.8116 98.9395 41.444 98.1321 41.4546H98.0817C97.758 41.4589 97.4415 41.3588 97.1791 41.1692C96.9167 40.9796 96.7223 40.7106 96.6246 40.4019L96.0253 38.6783H90.8466L90.2672 40.4019C90.1736 40.7163 89.9795 40.9913 89.7146 41.1848C89.4498 41.3783 89.1288 41.4796 88.8008 41.4732C87.9921 41.5024 87.3132 40.8792 87.2933 40.0996V40.0519C87.286 39.8457 87.3198 39.6402 87.3928 39.4473H87.3915ZM95.1569 36.0664L93.4506 31.1382L91.7641 36.0677H95.1582L95.1569 36.0664ZM105.17 28.586C105.09 27.9045 105.598 27.2907 106.307 27.2124C106.383 27.2031 106.46 27.2031 106.537 27.2124H111.029C114.184 27.2124 115.65 28.7332 115.65 30.9725C115.687 31.5806 115.548 32.1864 115.251 32.7182C114.954 33.2499 114.51 33.6854 113.973 33.9729V34.0127C114.578 34.291 115.086 34.7441 115.431 35.3136C115.776 35.8831 115.942 36.5429 115.909 37.208C115.909 39.9644 114.013 41.3472 110.879 41.3472H106.537C106.209 41.3791 105.883 41.2801 105.629 41.0719C105.374 40.8637 105.212 40.5632 105.179 40.2362C105.17 40.1684 105.17 40.0997 105.179 40.032L105.17 28.586ZM110.63 32.9984C111.827 32.9984 112.545 32.3951 112.545 31.3438C112.545 30.291 111.837 29.7063 110.63 29.7063H108.434C108.373 29.6971 108.315 29.7461 108.304 29.8044V32.8831C108.293 32.9401 108.344 32.9984 108.403 33.009H110.63V32.9984ZM108.434 38.8626H110.799C112.077 38.8626 112.785 38.1718 112.785 37.0807C112.785 35.9895 112.077 35.3372 110.799 35.3372H108.434C108.373 35.3266 108.315 35.377 108.304 35.434V38.7366C108.293 38.795 108.344 38.8533 108.403 38.8626H108.434Z" fill="#22292F"/>
<path d="M12.447 29.5699C12.3195 29.078 12.139 28.6015 11.9087 28.1486C11.6993 27.5639 11.5388 26.9686 11.4089 26.3653C11.1997 25.3632 11.1196 24.3384 11.1702 23.3159C11.2193 22.0696 11.4593 20.8326 11.8782 19.6433C12.2574 18.5826 12.9257 17.4822 11.9286 16.4878L5.40946 10.1184C5.05172 9.77045 4.57289 9.57487 4.07382 9.57289C3.57475 9.57091 3.09439 9.76269 2.73391 10.1078L2.7233 10.1184L0.798176 12.0078C-0.947958 13.7022 1.75676 16.3234 3.49361 14.6382L4.08229 14.0628L8.36476 18.2525C7.04683 21.8866 7.04683 25.8681 8.36476 29.5023L4.0624 33.7092L3.47373 33.1337C1.74748 31.4592 -0.947958 34.0698 0.798176 35.7642L2.72463 37.6641C3.46312 38.3841 4.66036 38.3934 5.40018 37.6734L5.41078 37.6641L11.9379 31.2935C12.1581 31.0786 12.3196 30.8109 12.4071 30.5159C12.4946 30.221 12.5051 29.9085 12.4377 29.6083C12.447 29.5208 12.577 30.1532 12.447 29.5686V29.5699ZM45.0283 33.1258L44.4396 33.6999L40.1372 29.5023C41.4751 25.8712 41.4751 21.8822 40.1372 18.2512L44.4396 14.0535L45.0283 14.6276C46.7651 16.3234 49.45 13.6929 47.7237 11.9972L45.788 10.1184C45.4252 9.77119 44.9424 9.57736 44.4403 9.57736C43.9381 9.57736 43.4553 9.77119 43.0926 10.1184L36.5641 16.4878C35.4464 17.5882 36.405 18.9539 36.7736 20.1312C37.5426 22.5826 37.5426 25.2106 36.7736 27.662C36.4037 28.8393 35.4557 30.1745 36.5747 31.2656L43.0819 37.6456C43.4447 37.9928 43.9275 38.1867 44.4297 38.1867C44.9318 38.1867 45.4146 37.9928 45.7774 37.6456L47.7131 35.7655C49.45 34.0512 46.7559 31.4406 45.0283 33.1258ZM38.3699 2.86078L36.4236 0.971452C34.6867 -0.713695 32.0125 1.90617 33.7295 3.6006L34.3181 4.17601L30.0158 8.37363C26.2922 7.05975 22.2311 7.05975 18.5075 8.37363L14.2038 4.16673L14.7832 3.59132C16.52 1.9075 13.8246 -0.722975 12.0877 0.960845L10.1613 2.86078C9.986 3.03205 9.84673 3.23663 9.75165 3.4625C9.65656 3.68836 9.60758 3.93095 9.60758 4.17601C9.60758 4.42108 9.65656 4.66367 9.75165 4.88953C9.84673 5.11539 9.986 5.31997 10.1613 5.49125L16.6897 11.8619C17.8379 12.9823 19.2857 11.9879 20.5135 11.6365C21.7096 11.2844 22.9498 11.1044 24.1966 11.1022C25.5238 11.1022 26.851 11.2971 28.1185 11.6763C29.3263 12.0369 30.6946 12.9624 31.8123 11.8712L38.3606 5.50053C38.5366 5.33198 38.6768 5.1297 38.7728 4.90578C38.8689 4.68185 38.9188 4.44087 38.9197 4.19721C38.9206 3.95355 38.8723 3.71222 38.7779 3.48762C38.6834 3.26301 38.5447 3.05974 38.3699 2.88995C38.3805 2.87006 38.3699 2.86078 38.3699 2.86078ZM38.3699 42.2622L31.8428 35.8928C30.7238 34.8017 29.3263 35.7364 28.1092 36.097C25.596 36.8549 22.9146 36.8512 20.4034 36.0864C19.1956 35.7271 17.8273 34.8003 16.7096 35.8928L10.1613 42.2608C9.986 42.4321 9.84673 42.6367 9.75165 42.8626C9.65656 43.0884 9.60758 43.331 9.60758 43.5761C9.60758 43.8211 9.65656 44.0637 9.75165 44.2896C9.84673 44.5155 9.986 44.72 10.1613 44.8913L12.0877 46.782C13.8246 48.4671 16.52 45.8473 14.7832 44.1528L14.2038 43.5774L18.4968 39.3798C22.2198 40.695 26.2928 40.695 30.0158 39.3798L34.3181 43.588L33.7295 44.1621C31.9926 45.8473 34.6867 48.4777 36.4236 46.7926L38.3699 44.8926C38.5459 44.7242 38.6862 44.522 38.7824 44.2981C38.8786 44.0742 38.9286 43.8333 38.9296 43.5896C38.9306 43.3459 38.8825 43.1046 38.7882 42.8799C38.6938 42.6553 38.5552 42.4519 38.3805 42.2821C38.3805 42.2728 38.3699 42.2622 38.3699 42.2622Z" fill="#EB2044"/>
</svg>
