<svg width="140" height="65" viewBox="0 0 140 65" fill="none" xmlns="http://www.w3.org/2000/svg">
<g clip-path="url(#clip0_52_18623)">
<path d="M74.2271 0.106128C74.201 0.0530947 74.1226 6.10352e-05 74.0703 6.10352e-05H52.4921C52.4137 6.10352e-05 52.3615 0.0530947 52.3092 0.106128L19.0537 64.6747C19.0276 64.7277 19.0276 64.8073 19.0537 64.8603C19.0798 64.9133 19.1582 64.9664 19.2105 64.9664H40.7887C40.867 64.9664 40.9193 64.9133 40.9715 64.8603L74.2271 0.291746C74.2532 0.238713 74.2532 0.159162 74.2271 0.106128Z" fill="#FFE500"/>
<path d="M39.1689 22.274C39.1167 22.1945 39.0383 22.1414 38.9599 22.1414H35.8512C35.7729 22.1414 35.6684 22.1945 35.6422 22.274L25.245 42.4533C25.2189 42.5329 25.2189 42.6124 25.245 42.692C25.2972 42.7715 25.3756 42.798 25.454 42.798H30.1562C30.2346 42.798 30.3391 42.745 30.3652 42.6655L37.3925 29.0093L44.4198 42.6655C44.4721 42.745 44.5504 42.798 44.6288 42.798H49.3311C49.4095 42.798 49.4878 42.745 49.5401 42.692C49.5923 42.6124 49.5923 42.5329 49.5401 42.4533L39.1689 22.274ZM68.9761 22.1945H52.5965C52.4659 22.1945 52.3614 22.3005 52.3614 22.4331V42.5329C52.3614 42.6655 52.4659 42.7715 52.5965 42.7715H56.489C56.6196 42.7715 56.7241 42.6655 56.7241 42.5329V34.4718C56.7763 34.5513 56.8286 34.5778 56.9331 34.5778H67.7222C69.6031 34.5778 71.0138 34.3657 72.0849 33.9414C73.1821 33.4906 74.0703 32.7747 74.6972 31.767C75.3242 30.7859 75.6377 29.6457 75.6377 28.3994C75.6377 26.5167 75.0107 24.9787 73.7829 23.865C72.5812 22.7513 70.9615 22.1945 68.9761 22.1945ZM70.6219 29.9109C70.204 30.2821 69.5509 30.4677 68.6888 30.4677H58.8401C58.7618 30.4677 58.6834 30.5207 58.6311 30.6003L56.7502 34.2596V26.3311H68.5059C70.857 26.3311 71.1967 27.3652 71.1967 28.3729C71.1967 29.0623 71.0138 29.5661 70.6219 29.9109ZM139.771 42.4533L135.409 34.1005C135.566 34.0475 135.696 33.9945 135.827 33.9414C136.924 33.4906 137.812 32.7747 138.439 31.767C139.066 30.7859 139.38 29.6457 139.38 28.3994C139.38 26.5167 138.753 24.9787 137.525 23.865C136.323 22.7513 134.703 22.1945 132.718 22.1945H116.365C116.234 22.1945 116.13 22.3005 116.13 22.4331V42.5329C116.13 42.6655 116.234 42.7715 116.365 42.7715H120.257C120.388 42.7715 120.492 42.6655 120.492 42.5329V34.4718C120.544 34.5513 120.597 34.5778 120.701 34.5778H128.643C129.479 34.5778 130.524 34.6839 131.438 36.434L134.703 42.6389C134.756 42.7185 134.834 42.7715 134.912 42.7715H139.562C139.641 42.7715 139.719 42.7185 139.771 42.6655C139.824 42.6124 139.824 42.5329 139.771 42.4533ZM134.364 29.9109C134.129 30.123 133.815 30.2556 133.45 30.3616C133.162 30.4412 132.823 30.4677 132.431 30.4677H122.582C122.504 30.4677 122.425 30.5207 122.373 30.6003L120.492 34.2596V26.3311H132.274C134.625 26.3311 134.965 27.3652 134.965 28.3729C134.965 29.0623 134.782 29.5661 134.364 29.9109ZM83.1875 22.221H79.295C79.1644 22.221 79.0599 22.327 79.0599 22.4596V42.5329C79.0599 42.6655 79.1644 42.7715 79.295 42.7715H83.1875C83.3181 42.7715 83.4226 42.6655 83.4226 42.5329V22.4331C83.4226 22.327 83.3181 22.221 83.1875 22.221ZM111.479 22.221H88.6734C88.5428 22.221 88.4383 22.327 88.4383 22.4596V42.5064C88.4383 42.5594 88.4645 42.6389 88.5167 42.6655C88.5689 42.692 88.6212 42.745 88.6734 42.745H111.479C111.61 42.745 111.715 42.6389 111.715 42.5064V38.847C111.715 38.794 111.688 38.7145 111.636 38.6879C111.584 38.6349 111.532 38.6084 111.479 38.6084H92.801V34.3657V34.3922C92.8532 34.4718 92.9055 34.4983 93.01 34.4983H108.58C108.658 34.4983 108.736 34.4452 108.789 34.3657L110.67 30.7064C110.696 30.6268 110.696 30.5473 110.67 30.4677C110.617 30.3882 110.565 30.3616 110.461 30.3616H94.8909C94.8125 30.3616 94.7342 30.4147 94.6819 30.4942L92.801 34.1536V26.3576H111.479C111.61 26.3576 111.715 26.2515 111.715 26.1189V22.4596C111.715 22.327 111.61 22.221 111.479 22.221ZM22.6065 22.221H18.7402C18.6096 22.221 18.5051 22.327 18.5051 22.4596V35.7446L4.0325 22.274C3.98025 22.221 3.92801 22.221 3.87576 22.221H0.819281C0.688662 22.221 0.584167 22.327 0.584167 22.4596V42.5329C0.584167 42.6655 0.688662 42.7715 0.819281 42.7715H4.71172C4.84234 42.7715 4.94683 42.6655 4.94683 42.5329V29.3805L19.2626 42.692C19.3149 42.745 19.3671 42.745 19.4194 42.745H22.6326C22.7632 42.745 22.8677 42.6389 22.8677 42.5064V22.4331C22.8416 22.327 22.7371 22.221 22.6065 22.221Z" fill="#151515"/>
</g>
<defs>
<clipPath id="clip0_52_18623">
<rect width="139.213" height="64.9663" fill="white" transform="translate(0.584229)"/>
</clipPath>
</defs>
</svg>
