<svg width="92" height="55" viewBox="0 0 92 55" fill="none" xmlns="http://www.w3.org/2000/svg">
<g clip-path="url(#clip0_52_18647)">
<path fill-rule="evenodd" clip-rule="evenodd" d="M27.2594 20.6915C27.2594 21.8228 27.3786 22.7387 27.5873 23.4105C27.8257 24.0833 28.1238 24.8156 28.5412 25.6105C28.6902 25.8546 28.7498 26.0997 28.7498 26.3131C28.7498 26.6187 28.571 26.9244 28.1835 27.23L26.3045 28.5121C26.0372 28.6967 25.7679 28.788 25.5294 28.788C25.2313 28.788 24.9332 28.6352 24.6351 28.3603C24.2326 27.9167 23.8732 27.4359 23.562 26.9244C23.2639 26.4054 22.9658 25.8249 22.6369 25.1223C20.3118 27.9326 17.3895 29.3377 13.872 29.3377C11.367 29.3377 9.36979 28.6044 7.90811 27.1377C6.44747 25.671 5.70224 23.7161 5.70224 21.272C5.70224 18.6751 6.59651 16.5673 8.4159 14.9786C10.2343 13.3899 12.6488 12.596 15.7202 12.596C16.7337 12.596 17.777 12.6883 18.881 12.8401C19.9839 12.9929 21.1166 13.237 22.309 13.5119V11.2822C22.309 8.96008 21.8321 7.34057 20.908 6.3939C19.9541 5.44722 18.3444 4.98875 16.0481 4.98875C15.0047 4.98875 13.9306 5.1108 12.8276 5.38568C11.7307 5.65372 10.6547 6.00096 9.60826 6.42466C9.26935 6.57993 8.92046 6.71253 8.56392 6.82159C8.35525 6.88313 8.20621 6.9139 8.08697 6.9139C7.66964 6.9139 7.46098 6.60723 7.46098 5.9662V4.46772C7.46098 3.97951 7.5206 3.61233 7.66964 3.39899C7.81869 3.18463 8.08697 2.9713 8.5043 2.75693C9.54762 2.20718 10.8006 1.74872 12.2613 1.38256C13.7229 0.985633 15.273 0.802042 16.9125 0.802042C20.4608 0.802042 23.0553 1.62667 24.7246 3.27694C26.3641 4.92619 27.1998 7.43083 27.1998 10.7919V20.6905H27.2594V20.6915ZM15.1538 25.3356C16.1375 25.3356 17.151 25.152 18.2252 24.7859C19.2983 24.4187 20.2522 23.7469 21.057 22.83C21.534 22.2505 21.8917 21.6084 22.0705 20.8751C22.2494 20.1417 22.3686 19.2556 22.3686 18.2176V16.9345C21.4652 16.7089 20.5496 16.5353 19.6262 16.4145C18.6967 16.2935 17.7604 16.2322 16.8231 16.2309C14.8259 16.2309 13.3652 16.6289 12.3805 17.4535C11.3968 18.2781 10.9199 19.4392 10.9199 20.9664C10.9199 22.4023 11.2776 23.472 12.0228 24.2054C12.7382 24.9695 13.7826 25.3356 15.1538 25.3356ZM39.0956 28.6352C38.5591 28.6352 38.2014 28.5428 37.9629 28.3295C37.7244 28.1459 37.5158 27.7182 37.3359 27.1377L30.3307 3.52207C30.1519 2.91078 30.0635 2.51385 30.0635 2.29949C30.0635 1.81128 30.3009 1.53641 30.7779 1.53641H33.7002C34.2655 1.53641 34.6541 1.62872 34.8628 1.84205C35.1012 2.02462 35.2801 2.45232 35.4589 3.03283L40.4679 23.2587L45.1191 3.03283C45.2692 2.42257 45.4481 2.02462 45.6865 1.84205C45.925 1.65744 46.3413 1.53641 46.8789 1.53641H49.2636C49.83 1.53641 50.2186 1.62872 50.456 1.84205C50.6955 2.02462 50.9042 2.45232 51.0234 3.03283L55.7343 23.5028L60.8902 3.03181C61.0691 2.42155 61.2777 2.02359 61.4864 1.84103C61.7249 1.65641 62.1134 1.53538 62.649 1.53538H65.4222C65.8992 1.53538 66.1675 1.77949 66.1675 2.29847C66.1675 2.45232 66.1377 2.60411 66.1078 2.7877C66.077 2.9713 66.0184 3.2154 65.8992 3.55181L58.7142 27.1674C58.5343 27.7787 58.3256 28.1757 58.0871 28.3593C57.8487 28.5428 57.4611 28.6649 56.9544 28.6649H54.3898C53.8244 28.6649 53.4359 28.5726 53.1974 28.3593C52.9589 28.1449 52.7503 27.748 52.6321 27.1367L48.0106 7.43288L43.419 27.108C43.27 27.7182 43.0911 28.1162 42.8526 28.3295C42.6142 28.5439 42.1968 28.6352 41.6603 28.6352H39.0956ZM77.4096 29.4598C75.8585 29.4598 74.3084 29.2772 72.818 28.91C71.3275 28.5439 70.1639 28.1459 69.3889 27.6885C68.912 27.4136 68.583 27.108 68.4638 26.8331C68.3479 26.5626 68.2875 26.2718 68.286 25.9777V24.4187C68.286 23.7777 68.5244 23.472 68.9716 23.472C69.1504 23.472 69.3283 23.5028 69.5081 23.5643C69.687 23.6248 69.9553 23.7469 70.2534 23.869C71.2669 24.3274 72.3708 24.6946 73.5324 24.9387C74.6995 25.1811 75.8885 25.3038 77.0807 25.3049C78.9597 25.3049 80.4214 24.9695 81.4338 24.2966C82.4484 23.6248 82.9849 22.6474 82.9849 21.3941C82.9849 20.5387 82.7167 19.8361 82.1791 19.2556C81.6425 18.6751 80.629 18.1561 79.1673 17.6668L74.845 16.2925C72.6689 15.5899 71.0582 14.5509 70.0745 13.1765C69.0908 11.8329 68.5841 10.3355 68.5841 8.74572C68.5841 7.46365 68.8513 6.33236 69.3889 5.35491C69.9172 4.3769 70.649 3.52292 71.5352 2.85027C72.4294 2.1477 73.444 1.62769 74.6363 1.26051C75.8287 0.895376 77.0797 0.742554 78.3933 0.742554C79.0491 0.742554 79.7347 0.773323 80.3905 0.865632C81.0761 0.956915 81.7021 1.07897 82.3281 1.20102C82.9243 1.35487 83.4917 1.50666 84.0283 1.69026C84.5648 1.87282 84.9822 2.05641 85.2802 2.24001C85.6976 2.48411 85.9957 2.72822 86.1745 3.00412C86.3544 3.24822 86.4438 3.58463 86.4438 4.01233V5.44824C86.4438 6.08928 86.2043 6.42569 85.7572 6.42569C85.5187 6.42569 85.1312 6.30261 84.6244 6.05851C82.9253 5.26465 81.0165 4.86772 78.899 4.86772C77.201 4.86772 75.8585 5.1426 74.9344 5.72312C74.0093 6.30364 73.5334 7.1898 73.5334 8.4411C73.5334 9.29752 73.8315 10.0309 74.4277 10.6114C75.0239 11.1919 76.1268 11.7724 77.7067 12.2914L81.9416 13.6658C84.0879 14.3683 85.638 15.3468 86.5631 16.5991C87.4872 17.8514 87.9343 19.2874 87.9343 20.8761C87.9343 22.1889 87.666 23.3818 87.1592 24.4197C86.6227 25.4587 85.9062 26.3756 84.9822 27.109C84.0581 27.8721 82.9551 28.4218 81.6723 28.8198C80.2937 29.2544 78.8554 29.4707 77.4096 29.4608V29.4598Z" fill="#252F3E"/>
<path fill-rule="evenodd" clip-rule="evenodd" d="M82.4401 43.3685C72.6545 50.3635 58.4386 54.0763 46.2138 54.0763C29.0818 54.0763 13.6458 47.945 1.98635 37.7562C1.06432 36.951 1.89795 35.8567 2.9978 36.4905C15.6091 43.5706 31.1643 47.8588 47.2551 47.8588C58.1107 47.8588 70.0375 45.6711 81.0124 41.1818C82.6488 40.4618 84.0467 42.2178 82.4401 43.3685ZM86.5147 38.8793C85.2658 37.3244 78.2463 38.1305 75.0639 38.5049C74.1121 38.6198 73.9641 37.8136 74.8265 37.2095C80.4182 33.4105 89.6077 34.5038 90.6787 35.7705C91.7498 37.0659 90.3817 45.9593 85.1466 50.2189C84.3448 50.8804 83.5708 50.5358 83.9275 49.6722C85.1168 46.8229 87.7646 40.4044 86.5147 38.8793Z" fill="#FF9900"/>
</g>
<defs>
<clipPath id="clip0_52_18647">
<rect width="91.4831" height="54.3595" fill="white" transform="translate(0.0898438 0.303711)"/>
</clipPath>
</defs>
</svg>
