<svg width="174" height="53" viewBox="0 0 174 53" fill="none" xmlns="http://www.w3.org/2000/svg">
<g clip-path="url(#clip0_52_18673)">
<path d="M5.82637 28.8392C5.82928 26.5188 6.72626 24.2942 8.32058 22.6533C9.9149 21.0125 12.0764 20.0894 14.3311 20.0864V14.5783C10.6563 14.5346 7.11521 15.9952 4.48676 18.6386C1.85831 21.282 0.357841 24.8918 0.315448 28.6738C0.273055 32.4558 1.69221 36.1002 4.2607 38.8053C6.8292 41.5105 10.3366 43.0547 14.0114 43.0983H14.3311V37.5883C12.0769 37.5858 9.91566 36.6634 8.32134 35.0232C6.72702 33.3831 5.82977 31.1592 5.82637 28.8392ZM168.486 28.8147C168.484 31.1348 167.587 33.3592 165.993 34.9998C164.399 36.6403 162.238 37.5631 159.983 37.5656V43.0719C161.804 43.0953 163.611 42.7491 165.302 42.0532C166.993 41.3573 168.534 40.3253 169.836 39.0161C171.139 37.707 172.179 36.1464 172.895 34.4235C173.612 32.7007 173.991 30.8494 174.012 28.9756C174.033 27.1017 173.695 25.2419 173.017 23.5026C172.339 21.7633 171.335 20.1786 170.061 18.8391C168.788 17.4995 167.271 16.4314 165.596 15.6957C163.921 14.9601 162.122 14.5714 160.301 14.5518H159.983V20.0599C162.238 20.0629 164.4 20.9864 165.994 22.6277C167.588 24.269 168.484 26.494 168.486 28.8147Z" fill="#DFE1DF"/>
<path d="M38.8363 43.4577H33.5744V15.7488H38.7188V19.7197C40.6773 16.2631 43.8631 14.9395 47.0031 14.9395C53.496 14.9395 56.6304 19.6667 56.6304 25.8839V43.4539H51.3739V26.8029C51.3739 22.9455 49.8067 19.8331 45.1051 19.8331C40.907 19.8331 38.8363 23.2896 38.8363 27.4382V43.4577ZM83.5778 38.5036C82.2917 41.2113 79.4917 43.4577 75.2384 43.4577C67.4005 43.4577 62.4748 37.0647 62.4748 28.7675C62.4748 20.9903 67.6192 14.2494 75.2384 14.2494C79.94 14.2494 82.571 16.613 83.4657 18.916V1H88.667V37.5809C88.6599 39.2944 88.7532 41.0069 88.9463 42.7089H83.8515C83.6843 42.0755 83.5723 40.629 83.5723 38.9631L83.5778 38.5036ZM75.7399 38.6776C80.5555 38.6776 83.5208 34.3569 83.5208 28.6559C83.5208 22.8963 80.6675 19.0352 75.8043 19.0352C70.9906 19.0352 67.8562 23.0703 67.8562 28.7713C67.8562 34.4723 70.6985 38.6776 75.7344 38.6776H75.7399ZM102.95 26.7518L110.228 25.6684C111.85 25.4358 112.298 24.5716 112.298 23.5884C112.298 20.8807 110.564 18.6362 106.478 18.6362C102.728 18.6362 100.767 20.9979 100.376 24.2218L95.3364 23.0079C95.9519 17.7134 100.481 14.0206 106.36 14.0206C114.426 14.0206 117.567 18.8007 117.567 24.1557V38.0403C117.567 40.5174 117.736 41.8977 117.904 42.5898H112.759C112.592 41.8977 112.48 40.8615 112.48 38.8459C111.304 40.8029 108.622 43.4539 103.803 43.4539C98.3183 43.4539 94.7999 39.5379 94.7999 35.1586C94.7852 30.1497 98.2485 27.5025 102.95 26.7518ZM112.298 30.7227V29.4558L104.069 30.7227C101.831 31.1254 100.152 32.3942 100.152 34.8712C100.152 36.9512 101.831 38.9045 104.517 38.9045C108.828 38.9045 112.298 36.7753 112.298 30.7264V30.7227ZM134.14 15.4576H139.962V20.355H134.14V34.7559C134.14 37.2934 135.148 38.5584 137.891 38.5584C138.562 38.5584 139.514 38.5017 139.962 38.3278V42.9377C139.514 43.1098 138.171 43.4539 136.379 43.4539C131.733 43.4539 128.88 40.6327 128.88 35.5652V20.3588H123.735V15.4576H125.19C128.101 15.4576 129.326 13.6689 129.326 11.1956V6.70477H134.14V15.4576ZM14 14.949V20.4571C16.2337 20.4909 18.3648 21.4278 19.9328 23.0655C21.5008 24.7031 22.3798 26.9099 22.3798 29.209C22.3798 31.5081 21.5008 33.7149 19.9328 35.3526C18.3648 36.9902 16.2337 37.9271 14 37.9609V43.469C17.6472 43.4258 21.1307 41.9044 23.6949 39.2348C26.2591 36.5652 27.6972 32.9628 27.6972 29.209C27.6972 25.4552 26.2591 21.8528 23.6949 19.1832C21.1307 16.5136 17.6472 14.9922 14 14.949ZM159.65 43.4426V37.9363C157.417 37.9026 155.286 36.9656 153.718 35.328C152.15 33.6904 151.271 31.4836 151.271 29.1844C151.271 26.8853 152.15 24.6785 153.718 23.0409C155.286 21.4033 157.417 20.4663 159.65 20.4325V14.9244C157.831 14.9028 156.025 15.2503 154.336 15.9469C152.647 16.6436 151.107 17.6759 149.806 18.9847C148.505 20.2936 147.466 21.8535 146.751 23.5754C146.035 25.2972 145.656 27.1473 145.635 29.0199C145.614 30.8926 145.951 32.7512 146.628 34.4895C147.305 36.2279 148.308 37.812 149.58 39.1515C150.852 40.4909 152.367 41.5594 154.04 42.296C155.713 43.0326 157.511 43.4229 159.331 43.4445H159.65V43.4426Z" fill="#F26A36"/>
</g>
<defs>
<clipPath id="clip0_52_18673">
<rect width="173.685" height="51.7079" fill="white" transform="translate(0.314453 0.629395)"/>
</clipPath>
</defs>
</svg>
