<svg width="100" height="34" viewBox="0 0 100 34" fill="none" xmlns="http://www.w3.org/2000/svg">
<path d="M51.4271 10.5543C51.3703 15.153 55.4133 17.7194 58.459 19.2452C61.5883 20.8108 62.6393 21.8147 62.6274 23.2146C62.6035 25.3573 60.1311 26.3029 57.817 26.3397C53.78 26.4042 51.433 25.2192 49.5668 24.3228L48.1127 31.3191C49.9848 32.2063 53.4515 32.9799 57.0466 33.0137C65.4849 33.0137 71.006 28.7312 71.0358 22.091C71.0687 13.6641 59.6982 13.1975 59.7758 9.43072C59.8027 8.28872 60.8627 7.06997 63.1857 6.75991C64.3353 6.60335 67.5094 6.48362 71.1075 8.18741L72.5198 1.41829C70.5849 0.693798 68.0976 0 65.0012 0C57.0586 0 51.4719 4.34083 51.4271 10.5543ZM86.091 0.583279C84.5502 0.583279 83.2513 1.50732 82.6721 2.92561L70.6178 32.5163H79.0501L80.7282 27.7488H91.0327L92.0062 32.5163H99.4382L92.9527 0.583279H86.091ZM87.2704 9.20969L89.704 21.2007H83.0393L87.2704 9.20969ZM41.2032 0.583279L34.5564 32.5163H42.5916L49.2354 0.583279H41.2032ZM29.3161 0.583279L20.9524 22.3181L17.5693 3.83737C17.1722 1.7744 15.6046 0.583279 13.8638 0.583279H0.191101L0 1.51039C2.8068 2.13665 5.99579 3.14664 7.9277 4.22725C9.11014 4.88728 9.44755 5.46441 9.83573 7.03313L16.2436 32.5163H24.7356L37.7544 0.583279H29.3161Z" fill="url(#paint0_linear_52_18699)"/>
<defs>
<linearGradient id="paint0_linear_52_18699" x1="45.7159" y1="33.676" x2="46.6983" y2="-0.228048" gradientUnits="userSpaceOnUse">
<stop stop-color="#222357"/>
<stop offset="1" stop-color="#254AA5"/>
</linearGradient>
</defs>
</svg>
