<svg width="128" height="54" viewBox="0 0 128 54" fill="none" xmlns="http://www.w3.org/2000/svg">
<g clip-path="url(#clip0_52_18747)">
<path fill-rule="evenodd" clip-rule="evenodd" d="M127.562 27.9419C127.562 18.8788 123.177 11.7274 114.798 11.7274C106.419 11.7274 101.292 18.8788 101.292 27.8711C101.292 38.5274 107.303 43.9087 115.93 43.9087C120.137 43.9087 123.319 42.9528 125.723 41.6075V34.5269C123.033 35.8601 120.062 36.5278 117.061 36.4741C113.631 36.4741 110.591 35.2704 110.202 31.0928H127.491C127.491 30.6326 127.562 28.7916 127.562 27.9419ZM110.096 24.5787C110.096 20.5781 112.535 18.9142 114.763 18.9142C116.919 18.9142 119.218 20.5781 119.218 24.5787H110.096ZM87.6449 11.7274C85.0655 11.7173 82.5823 12.7069 80.7151 14.4888L80.2555 12.2938H72.4772V53.5737L81.3162 51.6974L81.3515 41.6783C82.6243 42.5988 84.4982 43.9087 87.6095 43.9087C93.9382 43.9087 99.7012 38.8107 99.7012 27.5879C99.6658 17.321 93.8321 11.7274 87.6449 11.7274ZM85.5235 36.12C83.4375 36.12 82.2001 35.3766 81.3515 34.4561L81.3162 21.3216C82.2354 20.2949 83.5082 19.5868 85.5235 19.5868C88.7409 19.5868 90.9683 23.1979 90.9683 27.8357C90.9683 32.5797 88.7763 36.12 85.5235 36.12ZM60.3148 9.63858L69.1891 7.72682V0.540009L60.3148 2.41637V9.63858Z" fill="#635BFF"/>
<path d="M60.3148 12.3288H69.1891V43.3064H60.3148V12.3288Z" fill="#635BFF"/>
<path fill-rule="evenodd" clip-rule="evenodd" d="M50.8044 14.9486L50.2387 12.3288H42.6019V43.3065H51.4408V22.3125C53.5268 19.5864 57.0624 20.0821 58.1584 20.4715V12.3288C57.0271 11.904 52.8904 11.1251 50.8044 14.9486ZM33.1265 4.64636L24.4997 6.48732L24.4644 34.8451C24.4644 40.0848 28.3889 43.9437 33.6215 43.9437C36.5207 43.9437 38.642 43.4127 39.8088 42.7754V35.5886C38.6774 36.0488 33.0912 37.6774 33.0912 32.4377V19.8697H39.8088V12.3288H33.0912L33.1265 4.64636ZM9.22601 21.3212C9.22601 19.9405 10.3574 19.4094 12.2313 19.4094C15.2899 19.4734 18.2918 20.2492 20.9995 21.6752V13.3555C18.2085 12.2533 15.2314 11.7003 12.2313 11.727C5.05402 11.727 0.280991 15.4797 0.280991 21.746C0.280991 31.5173 13.7162 29.9595 13.7162 34.1725C13.7162 35.801 12.302 36.3321 10.322 36.3321C7.38751 36.3321 3.63979 35.1284 0.669904 33.4998V41.9257C3.71753 43.2462 7.00136 43.9328 10.322 43.9437C17.676 43.9437 22.7319 40.2972 22.7319 33.9601C22.6966 23.41 9.22601 25.2863 9.22601 21.3212Z" fill="#635BFF"/>
</g>
<defs>
<clipPath id="clip0_52_18747">
<rect width="127.281" height="53.0337" fill="white" transform="translate(0.280884 0.540039)"/>
</clipPath>
</defs>
</svg>
