<svg width="24" height="24" viewBox="0 0 24 24" fill="none" xmlns="http://www.w3.org/2000/svg">
<g id="!">
<g id="Ellipse 41">
<circle cx="12" cy="12" r="12" fill="#1763FB" fill-opacity="0.2"/>
<circle cx="12" cy="12" r="11.65" stroke="#1763FB" stroke-opacity="0.1" stroke-width="0.7"/>
</g>
<path id="Vector" fill-rule="evenodd" clip-rule="evenodd" d="M12.0952 7.28574C12.8447 7.28574 13.4523 6.67815 13.4523 5.92864C13.4523 5.17913 12.8447 4.57153 12.0952 4.57153C11.3457 4.57153 10.7381 5.17913 10.7381 5.92864C10.7381 6.67815 11.3457 7.28574 12.0952 7.28574ZM11.1905 9.09522C10.6908 9.09522 10.2857 9.50029 10.2857 9.99996C10.2857 10.4996 10.6908 10.9047 11.1905 10.9047V18.1426C11.1905 18.6423 11.5955 19.0473 12.0952 19.0473C12.5949 19.0473 12.9999 18.6423 12.9999 18.1426V9.99996C12.9999 9.50029 12.5949 9.09522 12.0952 9.09522H11.1905Z" fill="#3177FF"/>
</g>
</svg>
