<svg width="100" height="43" viewBox="0 0 100 43" fill="none" xmlns="http://www.w3.org/2000/svg">
<g id="Logo">
<g id="Icon">
<path id="Vector" d="M22.8756 28.8043L11.3653 43L10.2231 42.0488L21.7343 27.854L22.8756 28.8043Z" fill="#011230"/>
<path id="Vector_2" d="M12.3047 41.8414L11.3656 43L5.76489 38.3396V36.4033L10.1227 40.0266L12.3047 41.8414Z" fill="#011230"/>
<path id="Vector_3" d="M7.52393 14.1957L19.0333 0L20.1764 0.951205L8.66524 15.146L7.52393 14.1957Z" fill="#011230"/>
<path id="Vector_4" d="M18.0942 1.15861L19.0334 0L24.635 4.66037V6.59675L20.2762 2.9743L18.0942 1.15861Z" fill="#011230"/>
<path id="Vector_5" d="M23.2756 31.0733L24.2139 29.9156L30.3989 35.0605V36.9987L26.0411 33.3735L23.2756 31.0733Z" fill="#011230"/>
<path id="Vector_6" d="M7.1242 11.9267L6.18501 13.0844L0 7.93951V6.00134L4.35873 9.62647L7.1242 11.9267Z" fill="#011230"/>
<path id="Vector_7" d="M24.7047 26.5488L23.7656 27.7065L9.74756 16.048L10.6867 14.8894L10.6876 14.8903L18.4941 5.2629L19.4316 4.10697V4.10608L24.635 8.43388V10.3712L19.6363 6.21232L11.8289 15.8406L24.7047 26.5488Z" fill="#011230"/>
<path id="Vector_8" d="M5.69409 16.4521L6.63327 15.2944L20.6513 26.9529L19.7121 28.1106H19.7112L11.9047 37.738L10.9673 38.8939L5.76382 34.5661V32.6297L10.7625 36.7886L18.5699 27.1603L5.69409 16.4521Z" fill="#011230"/>
<path id="Vector_9" d="M1.62592 32.9632L4.37461 35.2456V37.1721L0 33.5461V9.77759L5.29614 14.1823L4.35784 15.3391L1.62592 13.0657V32.9632Z" fill="#011230"/>
<path id="Vector_10" d="M4.3746 17.1727V37.1721L2.7478 35.832V15.8218L4.3746 17.1727Z" fill="#011230"/>
<path id="Vector_11" d="M28.7741 10.0377L26.0254 7.75538V5.82794L30.3992 9.45396V33.2225L25.103 28.8187L26.0413 27.6609L28.7741 29.9344V10.0377Z" fill="#011230"/>
<path id="Vector_12" d="M26.0251 25.8274V5.82794L27.6511 7.16893V27.1782L26.0251 25.8274Z" fill="#011230"/>
</g>
<g id="Group">
<path id="Vector_13" d="M46.5398 16.8888C48.3844 16.8888 49.9606 17.5784 51.2683 18.9568C52.5752 20.3351 53.2291 22.0309 53.2291 24.045C53.2291 26.0591 52.5752 27.7549 51.2683 29.1332C49.9606 30.5116 48.3844 31.2012 46.5398 31.2012C44.498 31.2012 42.9309 30.4304 41.8383 28.8887V30.8481H38.9373V11.8006H41.8383V19.1739C42.9489 17.6505 44.5152 16.8888 46.5398 16.8888ZM43.0471 27.1739C43.8531 27.9903 44.8646 28.3981 46.0824 28.3981C47.3001 28.3981 48.3124 27.9903 49.1177 27.1739C49.9238 26.34 50.3264 25.2965 50.3264 24.045C50.3264 22.7935 49.9238 21.7599 49.1177 20.9435C48.3116 20.1097 47.3001 19.692 46.0824 19.692C44.8646 19.692 43.8523 20.1097 43.0471 20.9435C42.241 21.7599 41.8383 22.7935 41.8383 24.045C41.8383 25.2965 42.241 26.3218 43.0471 27.1739Z" fill="#011230"/>
<path id="Vector_14" d="M66.5004 19.1739V17.2419H69.4015V30.8464H66.5004V28.887C65.4079 30.4287 63.8407 31.1995 61.7989 31.1995C59.9543 31.1995 58.3782 30.5107 57.0704 29.1316C55.7627 27.7532 55.1096 26.0574 55.1096 24.0433C55.1096 22.0292 55.7635 20.3343 57.0704 18.9551C58.3773 17.5767 59.9535 16.8871 61.7989 16.8871C63.8407 16.8871 65.4079 17.6488 66.5004 19.1722V19.1739ZM59.2202 27.173C60.0263 27.9894 61.0378 28.3972 62.2555 28.3972C63.4733 28.3972 64.4856 27.9894 65.2908 27.173C66.0969 26.3392 66.4996 25.2957 66.4996 24.0442C66.4996 22.7926 66.0969 21.759 65.2908 20.9426C64.4848 20.1088 63.4733 19.6911 62.2555 19.6911C61.0378 19.6911 60.0255 20.1088 59.2202 20.9426C58.4142 21.759 58.0115 22.7926 58.0115 24.0442C58.0115 25.2957 58.4142 26.321 59.2202 27.173Z" fill="#011230"/>
<path id="Vector_15" d="M79.8514 16.8888C81.4095 16.8888 82.6584 17.3919 83.5986 18.399C84.5389 19.406 85.0087 20.7711 85.0087 22.4934V30.8464H82.1076V22.7926C82.1076 21.7773 81.8392 20.9965 81.3015 20.4528C80.7638 19.9083 80.0298 19.6364 79.0985 19.6364C78.0412 19.6364 77.2089 19.968 76.6 20.6294C75.9912 21.2916 75.6867 22.2663 75.6867 23.5543V30.8464H72.7856V17.2419H75.6867V18.9833C76.582 17.5867 77.97 16.888 79.8506 16.888L79.8514 16.8888Z" fill="#011230"/>
<path id="Vector_16" d="M93.8746 23.9082L100 30.8464H96.5343L91.0276 24.5614V30.8464H88.1265V11.8006H91.0276V23.2551L96.2389 17.2419H99.7848L93.8746 23.9082Z" fill="#011230"/>
</g>
</g>
</svg>
