<svg width="115" height="49" viewBox="0 0 115 49" fill="none" xmlns="http://www.w3.org/2000/svg">
<g id="Logo">
<g id="Icon">
<path id="Vector" d="M26.3069 32.829L13.0701 48.9477L11.7566 47.8677L24.9944 31.75L26.3069 32.829Z" fill="#00D4FF"/>
<path id="Vector_2" d="M14.1505 47.6323L13.0704 48.9479L6.62964 43.6562V41.4575L11.6412 45.5717L14.1505 47.6323Z" fill="url(#paint0_linear_52_18530)"/>
<path id="Vector_3" d="M8.65247 16.2415L21.8883 0.122803L23.2028 1.20286L9.96498 17.3205L8.65247 16.2415Z" fill="#25DBF1"/>
<path id="Vector_4" d="M20.8083 1.43836L21.8884 0.122803L28.3302 5.41449V7.61318L23.3177 3.50002L20.8083 1.43836Z" fill="url(#paint1_linear_52_18530)"/>
<path id="Vector_5" d="M26.767 35.4054L27.846 34.0908L34.9588 39.9327V42.1334L29.9473 38.0172L26.767 35.4054Z" fill="url(#paint2_linear_52_18530)"/>
<path id="Vector_6" d="M8.19282 13.6651L7.11276 14.9796L0 9.13774V6.93701L5.01253 11.0532L8.19282 13.6651Z" fill="url(#paint3_linear_52_18530)"/>
<path id="Vector_7" d="M28.4105 30.2681L27.3304 31.5826L11.2097 18.3448L12.2898 17.0292L12.2908 17.0302L21.2683 6.09869L22.3463 4.78617V4.78516L28.3303 9.69923V11.8989L22.5818 7.17672L13.6033 18.1093L28.4105 30.2681Z" fill="#00D4FF"/>
<path id="Vector_8" d="M6.54822 18.8036L7.62828 17.489L23.749 30.7269L22.6689 32.0414H22.6679L13.6904 42.9729L12.6124 44.2855L6.62841 39.3714V37.1727L12.3769 41.8949L21.3554 30.9624L6.54822 18.8036Z" fill="#00D4FF"/>
<path id="Vector_9" d="M1.8698 37.5513L5.03081 40.1428V42.3304L0 38.2132V11.2249L6.09056 16.2262L5.01152 17.5398L1.8698 14.9584V37.5513Z" fill="#3177FF"/>
<path id="Vector_10" d="M5.03073 19.6217V42.3304L3.15991 40.8087V18.0879L5.03073 19.6217Z" fill="url(#paint4_linear_52_18530)"/>
<path id="Vector_11" d="M33.0903 11.5203L29.9293 8.92878V6.74023L34.9591 10.8575V37.8458L28.8685 32.8454L29.9476 31.5309L33.0903 34.1122V11.5203Z" fill="#3177FF"/>
<path id="Vector_12" d="M29.929 29.4489V6.74023L31.7988 8.26288V30.9827L29.929 29.4489Z" fill="url(#paint5_linear_52_18530)"/>
</g>
<g id="Group">
<path id="Vector_13" d="M53.5208 19.2995C55.6421 19.2995 57.4547 20.0825 58.9586 21.6476C60.4615 23.2126 61.2135 25.1382 61.2135 27.4251C61.2135 29.712 60.4615 31.6375 58.9586 33.2026C57.4547 34.7676 55.6421 35.5507 53.5208 35.5507C51.1727 35.5507 49.3705 34.6754 48.1141 32.9249V35.1497H44.7778V13.522H48.1141V21.8941C49.3912 20.1644 51.1925 19.2995 53.5208 19.2995ZM49.5041 30.9778C50.4311 31.9048 51.5943 32.3678 52.9947 32.3678C54.3951 32.3678 55.5592 31.9048 56.4853 30.9778C57.4123 30.031 57.8753 28.8462 57.8753 27.4251C57.8753 26.004 57.4123 24.8304 56.4853 23.9034C55.5583 22.9567 54.3951 22.4823 52.9947 22.4823C51.5943 22.4823 50.4302 22.9567 49.5041 23.9034C48.5771 24.8304 48.1141 26.004 48.1141 27.4251C48.1141 28.8462 48.5771 30.0103 49.5041 30.9778Z" fill="white"/>
<path id="Vector_14" d="M76.4755 21.8941V19.7004H79.8117V35.1479H76.4755V32.9231C75.2191 34.6735 73.4169 35.5488 71.0688 35.5488C68.9475 35.5488 67.1349 34.7667 65.631 33.2007C64.1271 31.6356 63.3761 29.7101 63.3761 27.4232C63.3761 25.1363 64.1281 23.2117 65.631 21.6457C67.134 20.0806 68.9466 19.2976 71.0688 19.2976C73.4169 19.2976 75.2191 20.1625 76.4755 21.8923V21.8941ZM68.1033 30.9768C69.0303 31.9038 70.1935 32.3669 71.5939 32.3669C72.9943 32.3669 74.1585 31.9038 75.0845 30.9768C76.0115 30.0301 76.4745 28.8452 76.4745 27.4241C76.4745 26.0031 76.0115 24.8295 75.0845 23.9025C74.1575 22.9557 72.9943 22.4814 71.5939 22.4814C70.1935 22.4814 69.0294 22.9557 68.1033 23.9025C67.1763 24.8295 66.7133 26.0031 66.7133 27.4241C66.7133 28.8452 67.1763 30.0094 68.1033 30.9768Z" fill="white"/>
<path id="Vector_15" d="M91.8291 19.2995C93.621 19.2995 95.0571 19.8708 96.1384 21.0142C97.2198 22.1577 97.76 23.7077 97.76 25.6633V35.1479H94.4237V26.0031C94.4237 24.8502 94.115 23.9637 93.4967 23.3463C92.8784 22.728 92.0342 22.4193 90.9633 22.4193C89.7473 22.4193 88.7902 22.7958 88.09 23.5468C87.3898 24.2987 87.0397 25.4055 87.0397 26.868V35.1479H83.7035V19.7004H87.0397V21.6777C88.0693 20.0919 89.6655 19.2986 91.8281 19.2986L91.8291 19.2995Z" fill="white"/>
<path id="Vector_16" d="M107.956 27.2698L115 35.1479H111.014L104.682 28.0114V35.1479H101.345V13.522H104.682V26.5282L110.675 19.7004H114.753L107.956 27.2698Z" fill="white"/>
</g>
</g>
<defs>
<linearGradient id="paint0_linear_52_18530" x1="6.7748" y1="45.2022" x2="13.6378" y2="45.2022" gradientUnits="userSpaceOnUse">
<stop stop-color="#00D4FF" stop-opacity="0"/>
<stop offset="0.02" stop-color="#00D4FF" stop-opacity="0.05"/>
<stop offset="0.08" stop-color="#00D4FF" stop-opacity="0.25"/>
<stop offset="0.15" stop-color="#00D4FF" stop-opacity="0.43"/>
<stop offset="0.22" stop-color="#00D4FF" stop-opacity="0.58"/>
<stop offset="0.29" stop-color="#00D4FF" stop-opacity="0.71"/>
<stop offset="0.38" stop-color="#00D4FF" stop-opacity="0.82"/>
<stop offset="0.46" stop-color="#00D4FF" stop-opacity="0.9"/>
<stop offset="0.56" stop-color="#00D4FF" stop-opacity="0.96"/>
<stop offset="0.68" stop-color="#00D4FF" stop-opacity="0.99"/>
<stop offset="0.86" stop-color="#00D4FF"/>
</linearGradient>
<linearGradient id="paint1_linear_52_18530" x1="28.184" y1="3.86748" x2="21.321" y2="3.86748" gradientUnits="userSpaceOnUse">
<stop stop-color="#00D4FF" stop-opacity="0"/>
<stop offset="0.02" stop-color="#00D4FF" stop-opacity="0.05"/>
<stop offset="0.08" stop-color="#00D4FF" stop-opacity="0.25"/>
<stop offset="0.15" stop-color="#00D4FF" stop-opacity="0.43"/>
<stop offset="0.22" stop-color="#00D4FF" stop-opacity="0.58"/>
<stop offset="0.29" stop-color="#00D4FF" stop-opacity="0.71"/>
<stop offset="0.38" stop-color="#00D4FF" stop-opacity="0.82"/>
<stop offset="0.46" stop-color="#00D4FF" stop-opacity="0.9"/>
<stop offset="0.56" stop-color="#00D4FF" stop-opacity="0.96"/>
<stop offset="0.68" stop-color="#00D4FF" stop-opacity="0.99"/>
<stop offset="0.86" stop-color="#00D4FF"/>
</linearGradient>
<linearGradient id="paint2_linear_52_18530" x1="27.377" y1="34.8521" x2="34.6502" y2="40.7427" gradientUnits="userSpaceOnUse">
<stop stop-color="#3177FF" stop-opacity="0"/>
<stop offset="0.02" stop-color="#3177FF" stop-opacity="0.05"/>
<stop offset="0.08" stop-color="#3177FF" stop-opacity="0.25"/>
<stop offset="0.15" stop-color="#3177FF" stop-opacity="0.43"/>
<stop offset="0.22" stop-color="#3177FF" stop-opacity="0.58"/>
<stop offset="0.29" stop-color="#3177FF" stop-opacity="0.71"/>
<stop offset="0.38" stop-color="#3177FF" stop-opacity="0.82"/>
<stop offset="0.46" stop-color="#3177FF" stop-opacity="0.9"/>
<stop offset="0.56" stop-color="#3177FF" stop-opacity="0.96"/>
<stop offset="0.68" stop-color="#3177FF" stop-opacity="0.99"/>
<stop offset="0.86" stop-color="#3177FF"/>
</linearGradient>
<linearGradient id="paint3_linear_52_18530" x1="7.58174" y1="14.2183" x2="0.308589" y2="8.32871" gradientUnits="userSpaceOnUse">
<stop stop-color="#3177FF" stop-opacity="0"/>
<stop offset="0.02" stop-color="#3177FF" stop-opacity="0.05"/>
<stop offset="0.08" stop-color="#3177FF" stop-opacity="0.25"/>
<stop offset="0.15" stop-color="#3177FF" stop-opacity="0.43"/>
<stop offset="0.22" stop-color="#3177FF" stop-opacity="0.58"/>
<stop offset="0.29" stop-color="#3177FF" stop-opacity="0.71"/>
<stop offset="0.38" stop-color="#3177FF" stop-opacity="0.82"/>
<stop offset="0.46" stop-color="#3177FF" stop-opacity="0.9"/>
<stop offset="0.56" stop-color="#3177FF" stop-opacity="0.96"/>
<stop offset="0.68" stop-color="#3177FF" stop-opacity="0.99"/>
<stop offset="0.86" stop-color="#3177FF"/>
</linearGradient>
<linearGradient id="paint4_linear_52_18530" x1="9.51542" y1="23.5156" x2="5.19213" y2="28.855" gradientUnits="userSpaceOnUse">
<stop stop-color="#3177FF" stop-opacity="0"/>
<stop offset="0.02" stop-color="#3177FF" stop-opacity="0.05"/>
<stop offset="0.08" stop-color="#3177FF" stop-opacity="0.25"/>
<stop offset="0.15" stop-color="#3177FF" stop-opacity="0.43"/>
<stop offset="0.22" stop-color="#3177FF" stop-opacity="0.58"/>
<stop offset="0.29" stop-color="#3177FF" stop-opacity="0.71"/>
<stop offset="0.38" stop-color="#3177FF" stop-opacity="0.82"/>
<stop offset="0.46" stop-color="#3177FF" stop-opacity="0.9"/>
<stop offset="0.56" stop-color="#3177FF" stop-opacity="0.96"/>
<stop offset="0.68" stop-color="#3177FF" stop-opacity="0.99"/>
<stop offset="0.86" stop-color="#3177FF"/>
</linearGradient>
<linearGradient id="paint5_linear_52_18530" x1="25.4879" y1="25.5012" x2="29.8112" y2="20.1618" gradientUnits="userSpaceOnUse">
<stop stop-color="#3177FF" stop-opacity="0"/>
<stop offset="0.02" stop-color="#3177FF" stop-opacity="0.05"/>
<stop offset="0.08" stop-color="#3177FF" stop-opacity="0.25"/>
<stop offset="0.15" stop-color="#3177FF" stop-opacity="0.43"/>
<stop offset="0.22" stop-color="#3177FF" stop-opacity="0.58"/>
<stop offset="0.29" stop-color="#3177FF" stop-opacity="0.71"/>
<stop offset="0.38" stop-color="#3177FF" stop-opacity="0.82"/>
<stop offset="0.46" stop-color="#3177FF" stop-opacity="0.9"/>
<stop offset="0.56" stop-color="#3177FF" stop-opacity="0.96"/>
<stop offset="0.68" stop-color="#3177FF" stop-opacity="0.99"/>
<stop offset="0.86" stop-color="#3177FF"/>
</linearGradient>
</defs>
</svg>
