<svg width="462" height="465" viewBox="0 0 462 465" fill="none" xmlns="http://www.w3.org/2000/svg">
<path d="M268.157 114.438C212.288 109.247 166.718 139.627 131.441 205.601L191.776 236.884L122.578 370.344L3.82342e-05 306.789L54.3007 202.06C69.9701 171.839 85.401 146.483 100.591 125.996C115.771 105.508 136.677 87.9903 163.299 73.4354C189.911 58.8761 223.066 52.708 262.754 54.9157L268.157 114.438Z" fill="#3177FF"/>
<path d="M438.822 202.927C382.953 197.736 337.384 228.115 302.107 294.09L362.441 325.372L293.243 458.833L170.665 395.277L224.966 290.549C240.635 260.328 256.066 234.971 271.256 214.484C286.436 193.997 307.343 176.479 333.964 161.924C360.577 147.365 393.731 141.197 433.419 143.404L438.822 202.927Z" fill="#3177FF"/>
</svg>
